<svg width="80" height="80" viewBox="0 0 80 80" xmlns="http://www.w3.org/2000/svg">
<defs><linearGradient id="g" x1="0" y1="0" x2="1" y2="1"><stop offset="0" stop-color="#2C9CDB"/><stop offset="1" stop-color="#1A73E8"/></linearGradient></defs>
<rect width="80" height="80" rx="16" fill="url(#g)"/>
<g fill="#FFFFFF"><ellipse cx="36" cy="24" rx="14" ry="5"/><path d="M22 24v28c0 3 6.3 5.5 14 5.5s14-2.5 14-5.5V24c0 3-6.3 5.5-14 5.5S22 27 22 24z"/></g>
<path d="M58 38c1 6.5 2.5 8 9 9-6.5 1-8 2.5-9 9-1-6.5-2.5-8-9-9 6.5-1 8-2.5 9-9z" fill="#FFFFFF"/>
</svg>
